<?xml version="1.0" standalone="no"?>
<svg xmlns:xlink="http://www.w3.org/1999/xlink" id="wave" style="transform:rotate(180deg); transition: 0.3s" viewBox="0 0 1440 490" version="1.1" xmlns="http://www.w3.org/2000/svg"><defs><linearGradient id="sw-gradient-0" x1="0" x2="0" y1="1" y2="0"><stop stop-color="rgba(243, 106, 62, 1)" offset="0%"/><stop stop-color="rgba(255, 179, 11, 1)" offset="100%"/></linearGradient></defs><path style="transform:translate(0, 0px); opacity:1" fill="url(#sw-gradient-0)" d="M0,441L16,408.3C32,376,64,310,96,294C128,278,160,310,192,277.7C224,245,256,147,288,114.3C320,82,352,114,384,179.7C416,245,448,343,480,359.3C512,376,544,310,576,294C608,278,640,310,672,302.2C704,294,736,245,768,245C800,245,832,294,864,277.7C896,261,928,180,960,187.8C992,196,1024,294,1056,285.8C1088,278,1120,163,1152,122.5C1184,82,1216,114,1248,163.3C1280,212,1312,278,1344,253.2C1376,229,1408,114,1440,98C1472,82,1504,163,1536,163.3C1568,163,1600,82,1632,65.3C1664,49,1696,98,1728,147C1760,196,1792,245,1824,285.8C1856,327,1888,359,1920,343C1952,327,1984,261,2016,236.8C2048,212,2080,229,2112,196C2144,163,2176,82,2208,73.5C2240,65,2272,131,2288,163.3L2304,196L2304,490L2288,490C2272,490,2240,490,2208,490C2176,490,2144,490,2112,490C2080,490,2048,490,2016,490C1984,490,1952,490,1920,490C1888,490,1856,490,1824,490C1792,490,1760,490,1728,490C1696,490,1664,490,1632,490C1600,490,1568,490,1536,490C1504,490,1472,490,1440,490C1408,490,1376,490,1344,490C1312,490,1280,490,1248,490C1216,490,1184,490,1152,490C1120,490,1088,490,1056,490C1024,490,992,490,960,490C928,490,896,490,864,490C832,490,800,490,768,490C736,490,704,490,672,490C640,490,608,490,576,490C544,490,512,490,480,490C448,490,416,490,384,490C352,490,320,490,288,490C256,490,224,490,192,490C160,490,128,490,96,490C64,490,32,490,16,490L0,490Z"/></svg>